<?xml version="1.0" encoding="UTF-8" standalone="no"?><!DOCTYPE svg PUBLIC "-//W3C//DTD SVG 1.1//EN" "http://www.w3.org/Graphics/SVG/1.1/DTD/svg11.dtd"><!-- Generated by graphviz version 2.40.1 (20161225.0304)
 --><!-- Title: %0 Pages: 1 --><svg xmlns="http://www.w3.org/2000/svg" xmlns:xlink="http://www.w3.org/1999/xlink" width="2521pt" height="222pt" viewBox="0.00 0.00 2521.33 221.60">
<g id="graph0" class="graph" transform="scale(1 1) rotate(0) translate(4 217.6)">
<title>%0</title>
<polygon fill="#ffffff" stroke="transparent" points="-4,4 -4,-217.6 2517.3297,-217.6 2517.3297,4 -4,4"/>
<!-- n10 -->
<g id="node1" class="node">
<title>n10</title>
<ellipse fill="none" stroke="#000000" cx="86.6678" cy="-195.6" rx="86.8359" ry="18"/>
<text text-anchor="middle" x="86.6678" y="-191.4" font-family="Times,serif" font-size="14.00" fill="#000000">ExampleBrightness</text>
</g>
<!-- n35 -->
<g id="node2" class="node">
<title>n35</title>
<ellipse fill="none" stroke="#000000" cx="253.6678" cy="-195.6" rx="62.5431" ry="18"/>
<text text-anchor="middle" x="253.6678" y="-191.4" font-family="Times,serif" font-size="14.00" fill="#000000">example_hex</text>
</g>
<!-- n36 -->
<g id="node4" class="node">
<title>n36</title>
<ellipse fill="none" stroke="#000000" cx="253.6678" cy="-106.8" rx="61.3993" ry="18"/>
<text text-anchor="middle" x="253.6678" y="-102.6" font-family="Times,serif" font-size="14.00" fill="#000000">example_rgb</text>
</g>
<!-- n35&#45;&gt;n36 -->
<g id="edge1" class="edge">
<title>n35-&gt;n36</title>
<path fill="none" stroke="#000000" d="M236.2405,-177.9522C231.9443,-172.5041 227.9291,-166.1906 225.6678,-159.6 223.2446,-152.5375 223.2446,-149.8625 225.6678,-142.8 226.8337,-139.4017 228.466,-136.0771 230.3627,-132.9069"/>
<polygon fill="#000000" stroke="#000000" points="233.4085,-134.6572 236.2405,-124.4478 227.66,-130.6628 233.4085,-134.6572"/>
<text text-anchor="middle" x="243.1678" y="-147" font-family="Times,serif" font-size="14.00" fill="#000000">10000</text>
</g>
<!-- n26 -->
<g id="node3" class="node">
<title>n26</title>
<ellipse fill="none" stroke="#000000" cx="394.6678" cy="-195.6" rx="60.8371" ry="18"/>
<text text-anchor="middle" x="394.6678" y="-191.4" font-family="Times,serif" font-size="14.00" fill="#000000">ExampleLux</text>
</g>
<!-- n36&#45;&gt;n35 -->
<g id="edge2" class="edge">
<title>n36-&gt;n35</title>
<path fill="none" stroke="#000000" d="M257.9139,-125.0148C259.0441,-130.68 260.1062,-136.9693 260.6678,-142.8 261.3836,-150.2323 261.3836,-152.1677 260.6678,-159.6 260.4221,-162.1509 260.0806,-164.7896 259.6795,-167.4255"/>
<polygon fill="#000000" stroke="#000000" points="256.2132,-166.9278 257.9139,-177.3852 263.1058,-168.1497 256.2132,-166.9278"/>
<text text-anchor="middle" x="279.1678" y="-147" font-family="Times,serif" font-size="14.00" fill="#000000">10000</text>
</g>
<!-- n17 -->
<g id="node5" class="node">
<title>n17</title>
<ellipse fill="none" stroke="#000000" cx="500.6678" cy="-195.6" rx="27" ry="18"/>
<text text-anchor="middle" x="500.6678" y="-191.4" font-family="Times,serif" font-size="14.00" fill="#000000">lux</text>
</g>
<!-- n32 -->
<g id="node28" class="node">
<title>n32</title>
<ellipse fill="none" stroke="#000000" cx="500.6678" cy="-106.8" rx="36.4955" ry="18"/>
<text text-anchor="middle" x="500.6678" y="-102.6" font-family="Times,serif" font-size="14.00" fill="#000000">w/m²</text>
</g>
<!-- n17&#45;&gt;n32 -->
<g id="edge3" class="edge">
<title>n17-&gt;n32</title>
<path fill="none" stroke="#000000" d="M487.218,-179.7969C482.9828,-173.8551 478.8445,-166.7893 476.6678,-159.6 474.504,-152.4537 474.504,-149.9463 476.6678,-142.8 477.7548,-139.2099 479.3309,-135.6505 481.1641,-132.2465"/>
<polygon fill="#000000" stroke="#000000" points="484.1758,-134.0309 486.4571,-123.6846 478.2216,-130.35 484.1758,-134.0309"/>
<text text-anchor="middle" x="483.6678" y="-147" font-family="Times,serif" font-size="14.00" fill="#000000">20</text>
</g>
<!-- n4 -->
<g id="node6" class="node">
<title>n4</title>
<ellipse fill="none" stroke="#000000" cx="586.6678" cy="-195.6" rx="27" ry="18"/>
<text text-anchor="middle" x="586.6678" y="-191.4" font-family="Times,serif" font-size="14.00" fill="#000000">m/s</text>
</g>
<!-- n11 -->
<g id="node32" class="node">
<title>n11</title>
<ellipse fill="none" stroke="#000000" cx="593.6678" cy="-106.8" rx="30.7789" ry="18"/>
<text text-anchor="middle" x="593.6678" y="-102.6" font-family="Times,serif" font-size="14.00" fill="#000000">km/h</text>
</g>
<!-- n4&#45;&gt;n11 -->
<g id="edge4" class="edge">
<title>n4-&gt;n11</title>
<path fill="none" stroke="#000000" d="M580.3146,-177.9325C577.4469,-167.6433 575.1969,-154.4433 577.6678,-142.8 578.3142,-139.7537 579.2369,-136.6523 580.317,-133.6116"/>
<polygon fill="#000000" stroke="#000000" points="583.601,-134.828 584.1586,-124.2478 577.1248,-132.171 583.601,-134.828"/>
<text text-anchor="middle" x="581.1678" y="-147" font-family="Times,serif" font-size="14.00" fill="#000000">1</text>
</g>
<!-- n25 -->
<g id="node7" class="node">
<title>n25</title>
<ellipse fill="none" stroke="#000000" cx="676.6678" cy="-195.6" rx="44.6271" ry="18"/>
<text text-anchor="middle" x="676.6678" y="-191.4" font-family="Times,serif" font-size="14.00" fill="#000000">uv index</text>
</g>
<!-- n2 -->
<g id="node8" class="node">
<title>n2</title>
<ellipse fill="none" stroke="#000000" cx="766.6678" cy="-195.6" rx="27.2467" ry="18"/>
<text text-anchor="middle" x="766.6678" y="-191.4" font-family="Times,serif" font-size="14.00" fill="#000000">Hex</text>
</g>
<!-- n7 -->
<g id="node14" class="node">
<title>n7</title>
<ellipse fill="none" stroke="#000000" cx="730.6678" cy="-106.8" rx="27.268" ry="18"/>
<text text-anchor="middle" x="730.6678" y="-102.6" font-family="Times,serif" font-size="14.00" fill="#000000">Rgb</text>
</g>
<!-- n2&#45;&gt;n7 -->
<g id="edge6" class="edge">
<title>n2-&gt;n7</title>
<path fill="none" stroke="#000000" d="M746.0171,-183.5184C737.7632,-177.4842 729.1623,-169.3721 724.6678,-159.6 721.1441,-151.9387 720.9016,-143.017 722.0464,-134.7117"/>
<polygon fill="#000000" stroke="#000000" points="725.5269,-135.1603 724.096,-124.6626 718.6681,-133.7614 725.5269,-135.1603"/>
<text text-anchor="middle" x="728.1678" y="-147" font-family="Times,serif" font-size="14.00" fill="#000000">0</text>
</g>
<!-- n27 -->
<g id="node18" class="node">
<title>n27</title>
<ellipse fill="none" stroke="#000000" cx="806.6678" cy="-106.8" rx="27" ry="18"/>
<text text-anchor="middle" x="806.6678" y="-102.6" font-family="Times,serif" font-size="14.00" fill="#000000">Hsb</text>
</g>
<!-- n2&#45;&gt;n27 -->
<g id="edge5" class="edge">
<title>n2-&gt;n27</title>
<path fill="none" stroke="#000000" d="M771.7199,-177.6175C774.9039,-167.2233 779.4039,-154.0233 784.6678,-142.8 786.3687,-139.1734 788.3469,-135.4534 790.4062,-131.8454"/>
<polygon fill="#000000" stroke="#000000" points="793.4352,-133.5998 795.5808,-123.2244 787.4334,-129.9972 793.4352,-133.5998"/>
<text text-anchor="middle" x="788.1678" y="-147" font-family="Times,serif" font-size="14.00" fill="#000000">1</text>
</g>
<!-- n1 -->
<g id="node9" class="node">
<title>n1</title>
<ellipse fill="none" stroke="#000000" cx="1046.6678" cy="-195.6" rx="155.7235" ry="18"/>
<text text-anchor="middle" x="1046.6678" y="-191.4" font-family="Times,serif" font-size="14.00" fill="#000000">Parts per Million (Carbon Monoxide)</text>
</g>
<!-- n22 -->
<g id="node35" class="node">
<title>n22</title>
<ellipse fill="none" stroke="#000000" cx="1047.6678" cy="-106.8" rx="195.6309" ry="18"/>
<text text-anchor="middle" x="1047.6678" y="-102.6" font-family="Times,serif" font-size="14.00" fill="#000000">Milligram Per Cubic Meter (Carbon Monoxide)</text>
</g>
<!-- n1&#45;&gt;n22 -->
<g id="edge7" class="edge">
<title>n1-&gt;n22</title>
<path fill="none" stroke="#000000" d="M1035.5812,-177.2326C1030.827,-167.1729 1026.9242,-154.4219 1029.6678,-142.8 1030.3451,-139.9309 1031.288,-137.0298 1032.3905,-134.1851"/>
<polygon fill="#000000" stroke="#000000" points="1035.6759,-135.4138 1036.6003,-124.8594 1029.2958,-132.5337 1035.6759,-135.4138"/>
<text text-anchor="middle" x="1036.6678" y="-147" font-family="Times,serif" font-size="14.00" fill="#000000">20</text>
</g>
<!-- n12 -->
<g id="node10" class="node">
<title>n12</title>
<ellipse fill="none" stroke="#000000" cx="1346.6678" cy="-195.6" rx="56.1957" ry="18"/>
<text text-anchor="middle" x="1346.6678" y="-191.4" font-family="Times,serif" font-size="14.00" fill="#000000">millisecond</text>
</g>
<!-- n33 -->
<g id="node27" class="node">
<title>n33</title>
<ellipse fill="none" stroke="#000000" cx="1299.6678" cy="-106.8" rx="37.7025" ry="18"/>
<text text-anchor="middle" x="1299.6678" y="-102.6" font-family="Times,serif" font-size="14.00" fill="#000000">second</text>
</g>
<!-- n12&#45;&gt;n33 -->
<g id="edge9" class="edge">
<title>n12-&gt;n33</title>
<path fill="none" stroke="#000000" d="M1319.7822,-179.4374C1313.039,-174.0128 1306.6084,-167.3401 1302.6678,-159.6 1298.8601,-152.1211 1297.3891,-143.2515 1297.0715,-134.9379"/>
<polygon fill="#000000" stroke="#000000" points="1300.5722,-134.8939 1297.1971,-124.8511 1293.5728,-134.8067 1300.5722,-134.8939"/>
<text text-anchor="middle" x="1306.1678" y="-147" font-family="Times,serif" font-size="14.00" fill="#000000">1</text>
</g>
<!-- n3 -->
<g id="node31" class="node">
<title>n3</title>
<ellipse fill="none" stroke="#000000" cx="1393.6678" cy="-106.8" rx="37.7198" ry="18"/>
<text text-anchor="middle" x="1393.6678" y="-102.6" font-family="Times,serif" font-size="14.00" fill="#000000">minute</text>
</g>
<!-- n12&#45;&gt;n3 -->
<g id="edge8" class="edge">
<title>n12-&gt;n3</title>
<path fill="none" stroke="#000000" d="M1351.6575,-177.393C1354.904,-166.924 1359.654,-153.724 1365.6678,-142.8 1367.7297,-139.0544 1370.1677,-135.2872 1372.7312,-131.6741"/>
<polygon fill="#000000" stroke="#000000" points="1375.5904,-133.6957 1378.8229,-123.606 1370.0039,-129.4777 1375.5904,-133.6957"/>
<text text-anchor="middle" x="1369.1678" y="-147" font-family="Times,serif" font-size="14.00" fill="#000000">1</text>
</g>
<!-- n9 -->
<g id="node11" class="node">
<title>n9</title>
<ellipse fill="none" stroke="#000000" cx="1047.6678" cy="-18" rx="200.1888" ry="18"/>
<text text-anchor="middle" x="1047.6678" y="-13.8" font-family="Times,serif" font-size="14.00" fill="#000000">Microgram Per Cubic Meter (Carbon Monoxide)</text>
</g>
<!-- n9&#45;&gt;n22 -->
<g id="edge10" class="edge">
<title>n9-&gt;n22</title>
<path fill="none" stroke="#000000" d="M1047.6678,-36.072C1047.6678,-48.2243 1047.6678,-64.4958 1047.6678,-78.368"/>
<polygon fill="#000000" stroke="#000000" points="1044.1679,-78.4005 1047.6678,-88.4006 1051.1679,-78.4006 1044.1679,-78.4005"/>
<text text-anchor="middle" x="1051.1678" y="-58.2" font-family="Times,serif" font-size="14.00" fill="#000000">0</text>
</g>
<!-- n19 -->
<g id="node12" class="node">
<title>n19</title>
<ellipse fill="none" stroke="#000000" cx="1477.6678" cy="-195.6" rx="27" ry="18"/>
<text text-anchor="middle" x="1477.6678" y="-191.4" font-family="Times,serif" font-size="14.00" fill="#000000">Bar</text>
</g>
<!-- n20 -->
<g id="node36" class="node">
<title>n20</title>
<ellipse fill="none" stroke="#000000" cx="1477.6678" cy="-106.8" rx="27.8267" ry="18"/>
<text text-anchor="middle" x="1477.6678" y="-102.6" font-family="Times,serif" font-size="14.00" fill="#000000">HPa</text>
</g>
<!-- n19&#45;&gt;n20 -->
<g id="edge11" class="edge">
<title>n19-&gt;n20</title>
<path fill="none" stroke="#000000" d="M1470.5251,-177.9405C1468.5412,-172.1903 1466.6597,-165.7128 1465.6678,-159.6 1464.4717,-152.2297 1464.4717,-150.1703 1465.6678,-142.8 1466.1328,-139.9346 1466.7932,-136.9891 1467.568,-134.0759"/>
<polygon fill="#000000" stroke="#000000" points="1470.9312,-135.0466 1470.5251,-124.4595 1464.2404,-132.9891 1470.9312,-135.0466"/>
<text text-anchor="middle" x="1469.1678" y="-147" font-family="Times,serif" font-size="14.00" fill="#000000">0</text>
</g>
<!-- n24 -->
<g id="node13" class="node">
<title>n24</title>
<ellipse fill="none" stroke="#000000" cx="1550.6678" cy="-195.6" rx="27.8306" ry="18"/>
<text text-anchor="middle" x="1550.6678" y="-191.4" font-family="Times,serif" font-size="14.00" fill="#000000">kwh</text>
</g>
<!-- n7&#45;&gt;n2 -->
<g id="edge12" class="edge">
<title>n7-&gt;n2</title>
<path fill="none" stroke="#000000" d="M737.7654,-124.3076C742.8897,-136.9475 749.9053,-154.2527 755.7413,-168.648"/>
<polygon fill="#000000" stroke="#000000" points="752.5546,-170.1036 759.5553,-178.056 759.0418,-167.4736 752.5546,-170.1036"/>
<text text-anchor="middle" x="756.1678" y="-147" font-family="Times,serif" font-size="14.00" fill="#000000">0</text>
</g>
<!-- n23 -->
<g id="node15" class="node">
<title>n23</title>
<ellipse fill="none" stroke="#000000" cx="1623.6678" cy="-195.6" rx="27" ry="18"/>
<text text-anchor="middle" x="1623.6678" y="-191.4" font-family="Times,serif" font-size="14.00" fill="#000000">°C</text>
</g>
<!-- n28 -->
<g id="node21" class="node">
<title>n28</title>
<ellipse fill="none" stroke="#000000" cx="1623.6678" cy="-106.8" rx="37.1386" ry="18"/>
<text text-anchor="middle" x="1623.6678" y="-102.6" font-family="Times,serif" font-size="14.00" fill="#000000">Kelvin</text>
</g>
<!-- n23&#45;&gt;n28 -->
<g id="edge13" class="edge">
<title>n23-&gt;n28</title>
<path fill="none" stroke="#000000" d="M1616.5251,-177.9405C1614.5412,-172.1903 1612.6597,-165.7128 1611.6678,-159.6 1610.4717,-152.2297 1610.4717,-150.1703 1611.6678,-142.8 1612.1077,-140.0891 1612.7226,-137.3064 1613.4437,-134.5473"/>
<polygon fill="#000000" stroke="#000000" points="1616.8385,-135.4132 1616.3986,-124.8275 1610.1412,-133.3771 1616.8385,-135.4132"/>
<text text-anchor="middle" x="1615.1678" y="-147" font-family="Times,serif" font-size="14.00" fill="#000000">0</text>
</g>
<!-- n31 -->
<g id="node16" class="node">
<title>n31</title>
<ellipse fill="none" stroke="#000000" cx="1734.6678" cy="-195.6" rx="53.2878" ry="18"/>
<text text-anchor="middle" x="1734.6678" y="-191.4" font-family="Times,serif" font-size="14.00" fill="#000000">Percentage</text>
</g>
<!-- n5 -->
<g id="node30" class="node">
<title>n5</title>
<ellipse fill="none" stroke="#000000" cx="1731.6678" cy="-106.8" rx="52.7315" ry="18"/>
<text text-anchor="middle" x="1731.6678" y="-102.6" font-family="Times,serif" font-size="14.00" fill="#000000">OneToTen</text>
</g>
<!-- n31&#45;&gt;n5 -->
<g id="edge14" class="edge">
<title>n31-&gt;n5</title>
<path fill="none" stroke="#000000" d="M1734.0462,-177.2006C1733.6372,-165.0949 1733.0937,-149.0076 1732.6295,-135.2674"/>
<polygon fill="#000000" stroke="#000000" points="1736.1141,-134.7481 1732.2783,-124.872 1729.118,-134.9845 1736.1141,-134.7481"/>
<text text-anchor="middle" x="1737.1678" y="-147" font-family="Times,serif" font-size="14.00" fill="#000000">1</text>
</g>
<!-- n18 -->
<g id="node17" class="node">
<title>n18</title>
<ellipse fill="none" stroke="#000000" cx="1924.6678" cy="-195.6" rx="112.3399" ry="18"/>
<text text-anchor="middle" x="1924.6678" y="-191.4" font-family="Times,serif" font-size="14.00" fill="#000000">unix_format_milliseconds</text>
</g>
<!-- n16 -->
<g id="node20" class="node">
<title>n16</title>
<ellipse fill="none" stroke="#000000" cx="1911.6678" cy="-106.8" rx="52.7469" ry="18"/>
<text text-anchor="middle" x="1911.6678" y="-102.6" font-family="Times,serif" font-size="14.00" fill="#000000">iso_format</text>
</g>
<!-- n18&#45;&gt;n16 -->
<g id="edge15" class="edge">
<title>n18-&gt;n16</title>
<path fill="none" stroke="#000000" d="M1910.9349,-177.4537C1907.5588,-171.9977 1904.4136,-165.8048 1902.6678,-159.6 1900.4365,-151.6697 1900.8274,-142.9047 1902.2929,-134.8326"/>
<polygon fill="#000000" stroke="#000000" points="1905.7004,-135.6316 1904.6073,-125.0933 1898.89,-134.0131 1905.7004,-135.6316"/>
<text text-anchor="middle" x="1906.1678" y="-147" font-family="Times,serif" font-size="14.00" fill="#000000">1</text>
</g>
<!-- n21 -->
<g id="node34" class="node">
<title>n21</title>
<ellipse fill="none" stroke="#000000" cx="1806.6678" cy="-18" rx="112.8906" ry="18"/>
<text text-anchor="middle" x="1806.6678" y="-13.8" font-family="Times,serif" font-size="14.00" fill="#000000">unix_format_nanoseconds</text>
</g>
<!-- n18&#45;&gt;n21 -->
<g id="edge16" class="edge">
<title>n18-&gt;n21</title>
<path fill="none" stroke="#000000" d="M1897.6923,-178.0699C1879.845,-165.2316 1857.1481,-146.3408 1842.6678,-124.8 1826.5533,-100.8283 1817.0528,-68.9898 1811.8968,-46.3283"/>
<polygon fill="#000000" stroke="#000000" points="1815.2715,-45.3712 1809.765,-36.3198 1808.4251,-46.8295 1815.2715,-45.3712"/>
<text text-anchor="middle" x="1846.1678" y="-102.6" font-family="Times,serif" font-size="14.00" fill="#000000">0</text>
</g>
<!-- n27&#45;&gt;n2 -->
<g id="edge17" class="edge">
<title>n27-&gt;n2</title>
<path fill="none" stroke="#000000" d="M802.1056,-124.8357C799.1682,-135.2476 794.9182,-148.4476 789.6678,-159.6 787.9401,-163.2697 785.901,-167.0143 783.7624,-170.6345"/>
<polygon fill="#000000" stroke="#000000" points="780.7004,-168.9297 778.3617,-179.2632 786.634,-172.6435 780.7004,-168.9297"/>
<text text-anchor="middle" x="800.1678" y="-147" font-family="Times,serif" font-size="14.00" fill="#000000">1</text>
</g>
<!-- n34 -->
<g id="node19" class="node">
<title>n34</title>
<ellipse fill="none" stroke="#000000" cx="2278.6678" cy="-195.6" rx="86.8126" ry="18"/>
<text text-anchor="middle" x="2278.6678" y="-191.4" font-family="Times,serif" font-size="14.00" fill="#000000">ZwaveContactState</text>
</g>
<!-- n15 -->
<g id="node23" class="node">
<title>n15</title>
<ellipse fill="none" stroke="#000000" cx="2278.6678" cy="-106.8" rx="43.4396" ry="18"/>
<text text-anchor="middle" x="2278.6678" y="-102.6" font-family="Times,serif" font-size="14.00" fill="#000000">Boolean</text>
</g>
<!-- n34&#45;&gt;n15 -->
<g id="edge18" class="edge">
<title>n34-&gt;n15</title>
<path fill="none" stroke="#000000" d="M2271.3986,-177.5725C2269.4615,-171.9148 2267.6386,-165.5828 2266.6678,-159.6 2265.4717,-152.2297 2265.4717,-150.1703 2266.6678,-142.8 2267.1077,-140.0891 2267.7226,-137.3064 2268.4437,-134.5473"/>
<polygon fill="#000000" stroke="#000000" points="2271.8385,-135.4132 2271.3986,-124.8275 2265.1412,-133.3771 2271.8385,-135.4132"/>
<text text-anchor="middle" x="2270.1678" y="-147" font-family="Times,serif" font-size="14.00" fill="#000000">0</text>
</g>
<!-- n16&#45;&gt;n18 -->
<g id="edge19" class="edge">
<title>n16-&gt;n18</title>
<path fill="none" stroke="#000000" d="M1914.3134,-124.872C1916.0925,-137.0243 1918.4746,-153.2958 1920.5054,-167.168"/>
<polygon fill="#000000" stroke="#000000" points="1917.0625,-167.8131 1921.9742,-177.2006 1923.9886,-166.799 1917.0625,-167.8131"/>
<text text-anchor="middle" x="1923.1678" y="-147" font-family="Times,serif" font-size="14.00" fill="#000000">0</text>
</g>
<!-- n13 -->
<g id="node24" class="node">
<title>n13</title>
<ellipse fill="none" stroke="#000000" cx="2031.6678" cy="-18" rx="94.3466" ry="18"/>
<text text-anchor="middle" x="2031.6678" y="-13.8" font-family="Times,serif" font-size="14.00" fill="#000000">unix_format_seconds</text>
</g>
<!-- n16&#45;&gt;n13 -->
<g id="edge21" class="edge">
<title>n16-&gt;n13</title>
<path fill="none" stroke="#000000" d="M1915.2786,-88.7796C1918.3991,-77.4509 1923.9877,-63.2749 1933.6678,-54 1941.5337,-46.4634 1951.1077,-40.4813 1961.1543,-35.7392"/>
<polygon fill="#000000" stroke="#000000" points="1962.6781,-38.8938 1970.4782,-31.7238 1959.9093,-32.4646 1962.6781,-38.8938"/>
<text text-anchor="middle" x="1937.1678" y="-58.2" font-family="Times,serif" font-size="14.00" fill="#000000">0</text>
</g>
<!-- n16&#45;&gt;n21 -->
<g id="edge20" class="edge">
<title>n16-&gt;n21</title>
<path fill="none" stroke="#000000" d="M1897.2248,-89.0958C1887.9572,-78.3037 1875.3252,-64.5969 1862.6678,-54 1857.309,-49.5136 1851.3573,-45.138 1845.3919,-41.0713"/>
<polygon fill="#000000" stroke="#000000" points="1846.9868,-37.931 1836.7094,-35.3571 1843.1385,-43.7783 1846.9868,-37.931"/>
<text text-anchor="middle" x="1884.1678" y="-58.2" font-family="Times,serif" font-size="14.00" fill="#000000">0</text>
</g>
<!-- n28&#45;&gt;n23 -->
<g id="edge22" class="edge">
<title>n28-&gt;n23</title>
<path fill="none" stroke="#000000" d="M1623.6678,-124.872C1623.6678,-137.0243 1623.6678,-153.2958 1623.6678,-167.168"/>
<polygon fill="#000000" stroke="#000000" points="1620.1679,-167.2005 1623.6678,-177.2006 1627.1679,-167.2006 1620.1679,-167.2005"/>
<text text-anchor="middle" x="1627.1678" y="-147" font-family="Times,serif" font-size="14.00" fill="#000000">0</text>
</g>
<!-- n30 -->
<g id="node22" class="node">
<title>n30</title>
<ellipse fill="none" stroke="#000000" cx="2179.6678" cy="-18" rx="36.4761" ry="18"/>
<text text-anchor="middle" x="2179.6678" y="-13.8" font-family="Times,serif" font-size="14.00" fill="#000000">OnOff</text>
</g>
<!-- n30&#45;&gt;n15 -->
<g id="edge23" class="edge">
<title>n30-&gt;n15</title>
<path fill="none" stroke="#000000" d="M2197.5386,-34.0296C2212.8594,-47.7719 2235.1363,-67.7536 2252.472,-83.3032"/>
<polygon fill="#000000" stroke="#000000" points="2250.2654,-86.0257 2260.0466,-90.0974 2254.9395,-80.8147 2250.2654,-86.0257"/>
<text text-anchor="middle" x="2242.1678" y="-58.2" font-family="Times,serif" font-size="14.00" fill="#000000">0</text>
</g>
<!-- n15&#45;&gt;n34 -->
<g id="edge27" class="edge">
<title>n15-&gt;n34</title>
<path fill="none" stroke="#000000" d="M2278.6678,-124.872C2278.6678,-137.0243 2278.6678,-153.2958 2278.6678,-167.168"/>
<polygon fill="#000000" stroke="#000000" points="2275.1679,-167.2005 2278.6678,-177.2006 2282.1679,-167.2006 2275.1679,-167.2005"/>
<text text-anchor="middle" x="2282.1678" y="-147" font-family="Times,serif" font-size="14.00" fill="#000000">0</text>
</g>
<!-- n15&#45;&gt;n30 -->
<g id="edge26" class="edge">
<title>n15-&gt;n30</title>
<path fill="none" stroke="#000000" d="M2249.2027,-93.4786C2233.4111,-85.945 2215.9395,-76.8511 2209.6678,-70.8 2202.122,-63.5197 2195.9114,-53.9272 2191.1374,-44.9179"/>
<polygon fill="#000000" stroke="#000000" points="2194.2386,-43.2927 2186.6867,-35.8617 2187.9563,-46.3802 2194.2386,-43.2927"/>
<text text-anchor="middle" x="2213.1678" y="-58.2" font-family="Times,serif" font-size="14.00" fill="#000000">0</text>
</g>
<!-- n29 -->
<g id="node25" class="node">
<title>n29</title>
<ellipse fill="none" stroke="#000000" cx="2282.6678" cy="-18" rx="48.654" ry="18"/>
<text text-anchor="middle" x="2282.6678" y="-13.8" font-family="Times,serif" font-size="14.00" fill="#000000">AnyClear</text>
</g>
<!-- n15&#45;&gt;n29 -->
<g id="edge24" class="edge">
<title>n15-&gt;n29</title>
<path fill="none" stroke="#000000" d="M2270.625,-88.7449C2267.0775,-78.5583 2264.2089,-65.5865 2266.6678,-54 2267.2801,-51.1147 2268.1401,-48.1799 2269.1471,-45.2942"/>
<polygon fill="#000000" stroke="#000000" points="2272.4764,-46.3976 2272.99,-35.8152 2265.9892,-43.7675 2272.4764,-46.3976"/>
<text text-anchor="middle" x="2270.1678" y="-58.2" font-family="Times,serif" font-size="14.00" fill="#000000">0</text>
</g>
<!-- n8 -->
<g id="node33" class="node">
<title>n8</title>
<ellipse fill="none" stroke="#000000" cx="2430.6678" cy="-18" rx="81.1187" ry="18"/>
<text text-anchor="middle" x="2430.6678" y="-13.8" font-family="Times,serif" font-size="14.00" fill="#000000">BinaryStatusCode</text>
</g>
<!-- n15&#45;&gt;n8 -->
<g id="edge25" class="edge">
<title>n15-&gt;n8</title>
<path fill="none" stroke="#000000" d="M2303.7675,-92.1365C2328.039,-77.9568 2365.1291,-56.2884 2392.9529,-40.0334"/>
<polygon fill="#000000" stroke="#000000" points="2394.7641,-43.0289 2401.6331,-34.9624 2391.233,-36.9847 2394.7641,-43.0289"/>
<text text-anchor="middle" x="2371.1678" y="-58.2" font-family="Times,serif" font-size="14.00" fill="#000000">0</text>
</g>
<!-- n13&#45;&gt;n18 -->
<g id="edge29" class="edge">
<title>n13-&gt;n18</title>
<path fill="none" stroke="#000000" d="M2022.5979,-36.097C2011.6426,-57.6122 1992.3499,-94.4277 1973.6678,-124.8 1964.3522,-139.9447 1953.115,-156.3004 1943.753,-169.4723"/>
<polygon fill="#000000" stroke="#000000" points="1940.8915,-167.4568 1937.9106,-177.6237 1946.581,-171.5347 1940.8915,-167.4568"/>
<text text-anchor="middle" x="1998.1678" y="-102.6" font-family="Times,serif" font-size="14.00" fill="#000000">0</text>
</g>
<!-- n13&#45;&gt;n16 -->
<g id="edge28" class="edge">
<title>n13-&gt;n16</title>
<path fill="none" stroke="#000000" d="M2007.8532,-35.6228C1988.96,-49.6038 1962.4259,-69.239 1942.0112,-84.3458"/>
<polygon fill="#000000" stroke="#000000" points="1939.9141,-81.5436 1933.9576,-90.3055 1944.078,-87.1705 1939.9141,-81.5436"/>
<text text-anchor="middle" x="1986.1678" y="-58.2" font-family="Times,serif" font-size="14.00" fill="#000000">1</text>
</g>
<!-- n29&#45;&gt;n15 -->
<g id="edge30" class="edge">
<title>n29-&gt;n15</title>
<path fill="none" stroke="#000000" d="M2281.8537,-36.072C2281.3063,-48.2243 2280.5734,-64.4958 2279.9485,-78.368"/>
<polygon fill="#000000" stroke="#000000" points="2276.4502,-78.2532 2279.4966,-88.4006 2283.4431,-78.5682 2276.4502,-78.2532"/>
<text text-anchor="middle" x="2285.1678" y="-58.2" font-family="Times,serif" font-size="14.00" fill="#000000">0</text>
</g>
<!-- n6 -->
<g id="node26" class="node">
<title>n6</title>
<ellipse fill="none" stroke="#000000" cx="2411.6678" cy="-195.6" rx="28.4127" ry="18"/>
<text text-anchor="middle" x="2411.6678" y="-191.4" font-family="Times,serif" font-size="14.00" fill="#000000">ppm</text>
</g>
<!-- n33&#45;&gt;n12 -->
<g id="edge31" class="edge">
<title>n33-&gt;n12</title>
<path fill="none" stroke="#000000" d="M1309.0044,-124.4402C1315.6954,-137.082 1324.8297,-154.3401 1332.4271,-168.6943"/>
<polygon fill="#000000" stroke="#000000" points="1329.3852,-170.4289 1337.1566,-177.63 1335.572,-167.1543 1329.3852,-170.4289"/>
<text text-anchor="middle" x="1331.1678" y="-147" font-family="Times,serif" font-size="14.00" fill="#000000">0</text>
</g>
<!-- n32&#45;&gt;n17 -->
<g id="edge32" class="edge">
<title>n32-&gt;n17</title>
<path fill="none" stroke="#000000" d="M500.6678,-124.872C500.6678,-137.0243 500.6678,-153.2958 500.6678,-167.168"/>
<polygon fill="#000000" stroke="#000000" points="497.1679,-167.2005 500.6678,-177.2006 504.1679,-167.2006 497.1679,-167.2005"/>
<text text-anchor="middle" x="507.6678" y="-147" font-family="Times,serif" font-size="14.00" fill="#000000">20</text>
</g>
<!-- n14 -->
<g id="node29" class="node">
<title>n14</title>
<ellipse fill="none" stroke="#000000" cx="2485.6678" cy="-195.6" rx="27.8248" ry="18"/>
<text text-anchor="middle" x="2485.6678" y="-191.4" font-family="Times,serif" font-size="14.00" fill="#000000">watt</text>
</g>
<!-- n5&#45;&gt;n31 -->
<g id="edge33" class="edge">
<title>n5-&gt;n31</title>
<path fill="none" stroke="#000000" d="M1736.5194,-124.9847C1737.8111,-130.6487 1739.025,-136.9449 1739.6678,-142.8 1740.548,-150.8186 1740.2402,-159.5327 1739.4543,-167.5271"/>
<polygon fill="#000000" stroke="#000000" points="1735.9749,-167.1457 1738.2057,-177.503 1742.9207,-168.0151 1735.9749,-167.1457"/>
<text text-anchor="middle" x="1744.1678" y="-147" font-family="Times,serif" font-size="14.00" fill="#000000">0</text>
</g>
<!-- n3&#45;&gt;n12 -->
<g id="edge34" class="edge">
<title>n3-&gt;n12</title>
<path fill="none" stroke="#000000" d="M1386.7647,-124.7737C1382.5469,-135.1649 1376.7969,-148.3649 1370.6678,-159.6 1368.8713,-162.8929 1366.8625,-166.2711 1364.7925,-169.5758"/>
<polygon fill="#000000" stroke="#000000" points="1361.8019,-167.7545 1359.2742,-178.0434 1367.6664,-171.5765 1361.8019,-167.7545"/>
<text text-anchor="middle" x="1382.1678" y="-147" font-family="Times,serif" font-size="14.00" fill="#000000">0</text>
</g>
<!-- n11&#45;&gt;n4 -->
<g id="edge35" class="edge">
<title>n11-&gt;n4</title>
<path fill="none" stroke="#000000" d="M592.2432,-124.872C591.2852,-137.0243 590.0026,-153.2958 588.909,-167.168"/>
<polygon fill="#000000" stroke="#000000" points="585.4149,-166.9564 588.1182,-177.2006 592.3933,-167.5066 585.4149,-166.9564"/>
<text text-anchor="middle" x="595.1678" y="-147" font-family="Times,serif" font-size="14.00" fill="#000000">0</text>
</g>
<!-- n8&#45;&gt;n15 -->
<g id="edge36" class="edge">
<title>n8-&gt;n15</title>
<path fill="none" stroke="#000000" d="M2416.6033,-35.9617C2406.9579,-47.2663 2393.2972,-61.4376 2378.6678,-70.8 2362.6878,-81.0267 2343.4126,-88.8459 2326.0671,-94.5417"/>
<polygon fill="#000000" stroke="#000000" points="2324.6171,-91.3279 2316.1168,-97.6521 2326.7056,-98.0091 2324.6171,-91.3279"/>
<text text-anchor="middle" x="2402.1678" y="-58.2" font-family="Times,serif" font-size="14.00" fill="#000000">0</text>
</g>
<!-- n21&#45;&gt;n16 -->
<g id="edge37" class="edge">
<title>n21-&gt;n16</title>
<path fill="none" stroke="#000000" d="M1822.3251,-36.0672C1831.9938,-46.7356 1844.9466,-60.1854 1857.6678,-70.8 1863.7507,-75.8756 1870.5658,-80.8788 1877.2519,-85.4666"/>
<polygon fill="#000000" stroke="#000000" points="1875.3267,-88.3895 1885.5873,-91.0296 1879.2126,-82.5672 1875.3267,-88.3895"/>
<text text-anchor="middle" x="1861.1678" y="-58.2" font-family="Times,serif" font-size="14.00" fill="#000000">1</text>
</g>
<!-- n22&#45;&gt;n1 -->
<g id="edge39" class="edge">
<title>n22-&gt;n1</title>
<path fill="none" stroke="#000000" d="M1047.4643,-124.872C1047.3274,-137.0243 1047.1442,-153.2958 1046.9879,-167.168"/>
<polygon fill="#000000" stroke="#000000" points="1043.4879,-167.1618 1046.875,-177.2006 1050.4874,-167.2407 1043.4879,-167.1618"/>
<text text-anchor="middle" x="1054.6678" y="-147" font-family="Times,serif" font-size="14.00" fill="#000000">20</text>
</g>
<!-- n22&#45;&gt;n9 -->
<g id="edge38" class="edge">
<title>n22-&gt;n9</title>
<path fill="none" stroke="#000000" d="M1041.0022,-88.7278C1039.2265,-83.0683 1037.556,-76.7465 1036.6678,-70.8 1035.5647,-63.4153 1035.5647,-61.3847 1036.6678,-54 1037.0702,-51.3055 1037.6333,-48.5339 1038.294,-45.7819"/>
<polygon fill="#000000" stroke="#000000" points="1041.6868,-46.6449 1041.0022,-36.0722 1034.9442,-44.7642 1041.6868,-46.6449"/>
<text text-anchor="middle" x="1040.1678" y="-58.2" font-family="Times,serif" font-size="14.00" fill="#000000">0</text>
</g>
<!-- n20&#45;&gt;n19 -->
<g id="edge40" class="edge">
<title>n20-&gt;n19</title>
<path fill="none" stroke="#000000" d="M1477.6678,-124.872C1477.6678,-137.0243 1477.6678,-153.2958 1477.6678,-167.168"/>
<polygon fill="#000000" stroke="#000000" points="1474.1679,-167.2005 1477.6678,-177.2006 1481.1679,-167.2006 1474.1679,-167.2005"/>
<text text-anchor="middle" x="1481.1678" y="-147" font-family="Times,serif" font-size="14.00" fill="#000000">0</text>
</g>
</g>
</svg>